<svg xmlns="http://www.w3.org/2000/svg" xmlns:xlink="http://www.w3.org/1999/xlink" width="100%" viewBox="0 0 842 595" version="1.1">

    <style>
    text {
        pointer-events: none;
        font-family: 'Source Sans Pro', Lucida Grande, Geneva, Arial, Verdana, sans-serif;
    }
    .circle {
        stroke-width: 0;
    }
    .circle:hover {
        transition: stroke-width .1s ease-in-out;
        stroke-width: 20;
    }
    </style>

    <!-- lines -->

    <path d="M326,471 l-149.88,163.88 " fill="rgba(255,255,255,1.0)" stroke="rgba(178,178,178,1.0)" stroke-dasharray="2,7" stroke-linecap="round" stroke-width="4" transform="matrix(0.76,0.0,0.0,-0.76,0,595)"/>
    <path d="M326,471 l18,231.0 " fill="rgba(255,255,255,1.0)" stroke="rgba(178,178,178,1.0)" stroke-dasharray="2,7" stroke-linecap="round" stroke-width="4" transform="matrix(0.76,0.0,0.0,-0.76,0,595)"/>
    <path d="M326,471 l-220.0,-5.0 " fill="rgba(255,255,255,1.0)" stroke="rgba(178,178,178,1.0)" stroke-dasharray="2,7" stroke-linecap="round" stroke-width="4" transform="matrix(0.76,0.0,0.0,-0.76,0,595)"/>
    <path d="M326,471 l-152.88,-173.88 " fill="rgba(255,255,255,1.0)" stroke="rgba(178,178,178,1.0)" stroke-dasharray="2,7" stroke-linecap="round" stroke-width="4" transform="matrix(0.76,0.0,0.0,-0.76,0,595)"/>
    <path d="M326,471 l229.49,-4 " fill="rgba(255,255,255,1.0)" stroke="rgba(178,178,178,1.0)" stroke-dasharray="2,7" stroke-linecap="round" stroke-width="4" transform="matrix(0.76,0.0,0.0,-0.76,0,595)"/>
    <path d="M555.49,467 l212.49,-7 " fill="rgba(255,255,255,1.0)" stroke="rgba(178,178,178,1.0)" stroke-dasharray="2,7" stroke-linecap="round" stroke-width="4" transform="matrix(0.76,0.0,0.0,-0.76,0,595)"/>
    <path d="M767.97,460 l-90.31,221.04 " fill="rgba(255,255,255,1.0)" stroke="rgba(178,178,178,1.0)" stroke-dasharray="2,7" stroke-linecap="round" stroke-width="4" transform="matrix(0.76,0.0,0.0,-0.76,0,595)"/>
    <path d="M767.97,460 l87.31,236.04 " fill="rgba(255,255,255,1.0)" stroke="rgba(178,178,178,1.0)" stroke-dasharray="2,7" stroke-linecap="round" stroke-width="4" transform="matrix(0.76,0.0,0.0,-0.76,0,595)"/>
    <path d="M767.97,460 l219.04,92.31 " fill="rgba(255,255,255,1.0)" stroke="rgba(178,178,178,1.0)" stroke-dasharray="2,7" stroke-linecap="round" stroke-width="4" transform="matrix(0.76,0.0,0.0,-0.76,0,595)"/>
    <path d="M767.97,460 l219.04,-79.31 " fill="rgba(255,255,255,1.0)" stroke="rgba(178,178,178,1.0)" stroke-dasharray="2,7" stroke-linecap="round" stroke-width="4" transform="matrix(0.76,0.0,0.0,-0.76,0,595)"/>
    <path d="M767.97,460 l106.31,-211.04 " fill="rgba(255,255,255,1.0)" stroke="rgba(178,178,178,1.0)" stroke-dasharray="2,7" stroke-linecap="round" stroke-width="4" transform="matrix(0.76,0.0,0.0,-0.76,0,595)"/>
    <path d="M767.97,460 l-80.31,-213.04 " fill="rgba(255,255,255,1.0)" stroke="rgba(178,178,178,1.0)" stroke-dasharray="2,7" stroke-linecap="round" stroke-width="4" transform="matrix(0.76,0.0,0.0,-0.76,0,595)"/>
    <path d="M687.66,246.96 l-186.52,-2.45 " fill="rgba(255,255,255,1.0)" stroke="rgba(178,178,178,1.0)" stroke-dasharray="2,7" stroke-linecap="round" stroke-width="4" transform="matrix(0.76,0.0,0.0,-0.76,0,595)"/>
    <path d="M687.66,246.96 l-103.96,-134.85 " fill="rgba(255,255,255,1.0)" stroke="rgba(178,178,178,1.0)" stroke-dasharray="2,7" stroke-linecap="round" stroke-width="4" transform="matrix(0.76,0.0,0.0,-0.76,0,595)"/>
    <path d="M687.66,246.96 l38.16,-158.95 " fill="rgba(255,255,255,1.0)" stroke="rgba(178,178,178,1.0)" stroke-dasharray="2,7" stroke-linecap="round" stroke-width="4" transform="matrix(0.76,0.0,0.0,-0.76,0,595)"/>

    <!-- info -->
    <g>
        <a xlink:href="info.html" target="_parent">
            <path class="circle" d="M223.22,587.78 c26.01,26.01,26.01,68.18,0,94.2 c-26.01,26.01,-68.18,26.01,-94.2,0 c-26.01,-26.01,-26.01,-68.18,-0.0,-94.2 c26.01,-26.01,68.18,-26.01,94.2,0 Z M223.22,587.78 " fill="rgba(62,187,83,1.0)" stroke="rgba(62,187,83,1.0)" transform="matrix(0.76,0.0,0.0,-0.76,0,595)"/>
            <text text-anchor="start" transform="matrix(0.76,0.0,0.0,0.76,83.2314180053,-289.085926965)">
                <tspan fill="rgba(255,255,255,1.0)" font-family="RoboType-Bold" font-size="20" x="45.86" y="533.39">info</tspan>
            </text>
        </a>
    </g>

    <!-- layer -->
    <g>
        <a xlink:href="layer.html" target="_parent">
            <path class="circle" d="M602.58,419.9 c26.01,26.01,26.01,68.18,0,94.2 c-26.01,26.01,-68.18,26.01,-94.2,0 c-26.01,-26.01,-26.01,-68.18,0,-94.2 c26.01,-26.01,68.18,-26.01,94.2,0 Z M602.58,419.9 " fill="rgba(196,191,83,1.0)" stroke="rgba(196,191,83,1.0)" transform="matrix(0.76,0.0,0.0,-0.76,0,595)"/>
            <text text-anchor="start" transform="matrix(0.76,0.0,0.0,0.76,371.547446899,-161.498672485)">
                <tspan fill="rgba(255,255,255,1.0)" font-family="RoboType-Bold" font-size="20" x="40.7" y="533.39">layer</tspan>
            </text>
        </a>
    </g>

    <!-- features -->
    <g>
        <a xlink:href="features.html" target="_parent">
            <path class="circle" d="M220.22,250.02 c26.01,26.01,26.01,68.18,0,94.2 c-26.01,26.01,-68.18,26.01,-94.2,0 c-26.01,-26.01,-26.01,-68.18,-0.0,-94.2 c26.01,-26.01,68.18,-26.01,94.2,0 Z M220.22,250.02 " fill="rgba(62,187,187,1.0)" stroke="rgba(62,187,187,1.0)" transform="matrix(0.76,0.0,0.0,-0.76,0,595)"/>
            <text text-anchor="start" transform="matrix(0.76,0.0,0.0,0.76,80.9514180053,-32.3914180053)">
                <tspan fill="rgba(255,255,255,1.0)" font-family="RoboType-Bold" font-size="20" x="21.65" y="533.39">features</tspan>
            </text>
        </a>
    </g>

    <!-- point -->
    <g>
        <a xlink:href="point.html" target="_parent">
            <path class="circle" d="M548.23,197.42 c26.01,26.01,26.01,68.18,0,94.2 c-26.01,26.01,-68.18,26.01,-94.2,0.0 c-26.01,-26.01,-26.01,-68.18,0,-94.2 c26.01,-26.01,68.18,-26.01,94.2,-0.0 Z M548.23,197.42 " fill="rgba(219,104,247,1.0)" stroke="rgba(219,104,247,1.0)" stroke-width="0" transform="matrix(0.76,0.0,0.0,-0.76,0,595)"/>
            <text text-anchor="start" transform="matrix(0.76,0.0,0.0,0.76,330.241748643,7.58740670104)">
                <tspan fill="rgba(255,255,255,1.0)" font-family="RoboType-Bold" font-size="20" x="38.63" y="533.39">point</tspan>
            </text>
        </a>
    </g>

    <!-- image -->
    <g>
        <a xlink:href="image.html" target="_parent">
            <path class="circle" d="M1034.11,333.59 c26.01,26.01,26.01,68.18,0,94.2 c-26.01,26.01,-68.18,26.01,-94.2,0 c-26.01,-26.01,-26.01,-68.18,0,-94.2 c26.01,-26.01,68.18,-26.01,94.2,0 Z M1034.11,333.59 " fill="rgba(247,104,156,1.0)" stroke="rgba(247,104,156,1.0)" transform="matrix(0.76,0.0,0.0,-0.76,0,595)"/>
            <text text-anchor="start" transform="matrix(0.76,0.0,0.0,0.76,699.504014954,-95.9002569685)">
                <tspan fill="rgba(255,255,255,1.0)" font-family="RoboType-Bold" font-size="20" x="35.25" y="533.39">image</tspan>
            </text>
        </a>
    </g>

    <!-- component -->
    <g>
        <a xlink:href="component.html" target="_parent">
            <path class="circle" d="M1034.11,505.22 c26.01,26.01,26.01,68.18,0,94.2 c-26.01,26.01,-68.18,26.01,-94.2,0 c-26.01,-26.01,-26.01,-68.18,0,-94.2 c26.01,-26.01,68.18,-26.01,94.2,0 Z M1034.11,505.22 " fill="rgba(247,104,120,1.0)" stroke="rgba(247,104,120,1.0)" transform="matrix(0.76,0.0,0.0,-0.76,0,595)"/>
            <text text-anchor="start" transform="matrix(0.76,0.0,0.0,0.76,699.504014954,-226.337088002)">
                <tspan fill="rgba(255,255,255,1.0)" font-family="RoboType-Bold" font-size="20" x="7.7" y="533.39">component</tspan>
            </text>
        </a>
    </g>

    <!-- font lib -->
    <g>
        <a xlink:href="lib.html" target="_parent">
            <path class="circle" d="M391.1,654.9 c26.01,26.01,26.01,68.18,0,94.2 c-26.01,26.01,-68.18,26.01,-94.2,0 c-26.01,-26.01,-26.01,-68.18,0,-94.2 c26.01,-26.01,68.18,-26.01,94.2,0 Z M391.1,654.9 " fill="rgba(93,187,62,1.0)" stroke="rgba(93,187,62,1.0)" transform="matrix(0.76,0.0,0.0,-0.76,0,595)"/>
            <text text-anchor="start" transform="matrix(0.76,0.0,0.0,0.76,210.818672485,-340.09949585)">
                <tspan fill="rgba(255,255,255,1.0)" font-family="RoboType-Bold" font-size="20" x="53.52" y="533.39">lib</tspan>
            </text>
        </a>
    </g>

    <!-- contour -->
    <g>
        <a xlink:href="contour.html" target="_parent">
            <path class="circle" d="M734.76,199.87 c26.01,26.01,26.01,68.18,0,94.2 c-26.01,26.01,-68.18,26.01,-94.2,0 c-26.01,-26.01,-26.01,-68.18,0,-94.2 c26.01,-26.01,68.18,-26.01,94.2,0 Z M734.76,199.87 " fill="rgba(247,104,228,1.0)" stroke="rgba(247,104,228,1.0)" transform="matrix(0.76,0.0,0.0,-0.76,0,595)"/>
            <text text-anchor="start" transform="matrix(0.76,0.0,0.0,0.76,471.997805797,5.72912115526)">
                <tspan fill="rgba(255,255,255,1.0)" font-family="RoboType-Bold" font-size="20" x="24.52" y="533.39">contour</tspan>
            </text>
        </a>
    </g>

    <!-- guideline -->
    <g>
        <a xlink:href="guideline.html" target="_parent">
            <path class="circle" d="M921.38,201.87 c26.01,26.01,26.01,68.18,0,94.2 c-26.01,26.01,-68.18,26.01,-94.2,0 c-26.01,-26.01,-26.01,-68.18,0,-94.2 c26.01,-26.01,68.18,-26.01,94.2,0 Z M921.38,201.87 " fill="rgba(247,104,192,1.0)" stroke="rgba(247,104,192,1.0)" transform="matrix(0.76,0.0,0.0,-0.76,0,595)"/>
            <text text-anchor="start" transform="matrix(0.76,0.0,0.0,0.76,613.83463683,4.20912115526)">
                <tspan fill="rgba(255,255,255,1.0)" font-family="RoboType-Bold" font-size="20" x="19.5" y="533.39">guideline</tspan>
            </text>
        </a>
    </g>

    <!-- kerning -->
    <g>
        <a xlink:href="kerning.html" target="_parent">
            <path class="circle" d="M153.1,418.9 c26.01,26.01,26.01,68.18,0,94.2 c-26.01,26.01,-68.18,26.01,-94.2,0 c-26.01,-26.01,-26.01,-68.18,-0.0,-94.2 c26.01,-26.01,68.18,-26.01,94.2,0 Z M153.1,418.9 " fill="rgba(62,187,135,1.0)" stroke="rgba(62,187,135,1.0)" transform="matrix(0.76,0.0,0.0,-0.76,0,595)"/>
        </a>
        <text text-anchor="start" transform="matrix(0.76,0.0,0.0,0.76,29.9378491211,-160.738672485)">
            <tspan fill="rgba(255,255,255,1.0)" font-family="RoboType-Bold" font-size="20" x="27.04" y="533.39">kerning</tspan>
        </text>
    </g>

    <!-- glyph lib -->
    <g>
        <a xlink:href="lib.html" target="_parent">
            <path class="circle" d="M724.76,633.94 c26.01,26.01,26.01,68.18,0,94.2 c-26.01,26.01,-68.18,26.01,-94.2,0 c-26.01,-26.01,-26.01,-68.18,0,-94.2 c26.01,-26.01,68.18,-26.01,94.2,0 Z M724.76,633.94 " fill="rgba(247,159,104,1.0)" stroke="rgba(247,159,104,1.0)" transform="matrix(0.76,0.0,0.0,-0.76,0,595)"/>
            <text text-anchor="start" transform="matrix(0.76,0.0,0.0,0.76,464.397805797,-324.166466126)">
                <tspan fill="rgba(255,255,255,1.0)" font-family="RoboType-Bold" font-size="20" x="53.52" y="533.39">lib</tspan>
            </text>
        </a>
    </g>

    <!-- font -->
    <g>
        <a xlink:href="font.html" target="_parent">
            <path class="circle" d="M407.82,389.18 c45.19,45.19,45.19,118.46,0,163.65 c-45.19,45.19,-118.46,45.19,-163.65,0 c-45.19,-45.19,-45.19,-118.46,-0.0,-163.65 c45.19,-45.19,118.46,-45.19,163.65,-0.0 Z M407.82,389.18 " fill="rgba(145,187,62,1.0)" stroke="rgba(145,187,62,1.0)" transform="matrix(0.76,0.0,0.0,-0.76,0,595)"/>
            <text text-anchor="start" transform="matrix(0.76,0.0,0.0,0.76,159.815269165,-127.215269165)">
                <tspan fill="rgba(255,255,255,1.0)" font-family="RoboType-Bold" font-size="50" x="58.67" y="489.78">font</tspan>
            </text>
        </a>
    </g>

    <!-- segment -->
    <g>
        <a xlink:href="segment.html" target="_parent">
            <path class="circle" d="M772.91,40.92 c26.01,26.01,26.01,68.18,0,94.2 c-26.01,26.01,-68.18,26.01,-94.2,0 c-26.01,-26.01,-26.01,-68.18,0,-94.2 c26.01,-26.01,68.18,-26.01,94.2,-0.0 Z M772.91,40.92 " fill="rgba(123,104,247,1.0)" stroke="rgba(123,104,247,1.0)" transform="matrix(0.76,0.0,0.0,-0.76,0,595)"/>
            <text text-anchor="start" transform="matrix(0.76,0.0,0.0,0.76,500.998372771,126.528220673)">
                <tspan fill="rgba(255,255,255,1.0)" font-family="RoboType-Bold" font-size="20" x="22.14" y="533.39">segment</tspan>
            </text>
        </a>
    </g>

    <!-- anchor -->
    <g>
        <a xlink:href="anchor.html" target="_parent">
            <path class="circle" d="M902.38,648.94 c26.01,26.01,26.01,68.18,0,94.2 c-26.01,26.01,-68.18,26.01,-94.2,0 c-26.01,-26.01,-26.01,-68.18,0,-94.2 c26.01,-26.01,68.18,-26.01,94.2,0 Z M902.38,648.94 " fill="rgba(247,123,104,1.0)" stroke="rgba(247,123,104,1.0)" transform="matrix(0.76,0.0,0.0,-0.76,0,595)"/>
            <text text-anchor="start" transform="matrix(0.76,0.0,0.0,0.76,599.39463683,-335.566466126)">
                <tspan fill="rgba(255,255,255,1.0)" font-family="RoboType-Bold" font-size="20" x="29.47" y="533.39">anchor</tspan>
            </text>
        </a>
    </g>

    <!-- bPoint -->
    <g>
        <a xlink:href="bpoint.html" target="_parent">
            <path class="circle" d="M630.8,65.01 c26.01,26.01,26.01,68.18,0,94.2 c-26.01,26.01,-68.18,26.01,-94.2,0 c-26.01,-26.01,-26.01,-68.18,0,-94.2 c26.01,-26.01,68.18,-26.01,94.2,-0.0 Z M630.8,65.01 " fill="rgba(171,104,247,1.0)" stroke="rgba(171,104,247,1.0)" transform="matrix(0.76,0.0,0.0,-0.76,0,595)"/>
            <text text-anchor="start" transform="matrix(0.76,0.0,0.0,0.76,392.989650095,108.215851643)">
                <tspan fill="rgba(255,255,255,1.0)" font-family="RoboType-Bold" font-size="20" x="32.43" y="533.39">bPoint</tspan>
            </text>
        </a>
    </g>

    <!-- glyph -->
    <g>
        <a xlink:href="glyph.html" target="_parent">
            <path class="circle" d="M849.79,378.18 c45.19,45.19,45.19,118.46,0,163.65 c-45.19,45.19,-118.46,45.19,-163.65,0 c-45.19,-45.19,-45.19,-118.46,0,-163.65 c45.19,-45.19,118.46,-45.19,163.65,-0.0 Z M849.79,378.18 " fill="rgba(247,195,104,1.0)" stroke="rgba(247,195,104,1.0)" transform="matrix(0.76,0.0,0.0,-0.76,0,595)"/>
            <text text-anchor="start" transform="matrix(0.76,0.0,0.0,0.76,495.712817993,-118.855269165)">
                <tspan fill="rgba(255,255,255,1.0)" font-family="RoboType-Bold" font-size="50" x="46.14" y="489.78">glyph</tspan>
            </text>
        </a>
    </g>

    </svg>