<svg xmlns="http://www.w3.org/2000/svg" viewBox="0 0 16 16.083"><title>favicon_2</title><g id="Layer_2" data-name="Layer 2"><g id="Layer_2-2" data-name="Layer 2"><rect x="1" width="15" height="16" style="fill:none"/><polygon points="16 16 0 16.083 0 0.083 16 0 16 16" style="fill:none"/><rect y="2" width="4.984" height="2" rx="1" ry="1" style="fill:#16ff00"/><rect y="5" width="4.984" height="2" rx="1" ry="1" style="fill:#16ff00"/><rect x="7" y="5" width="3" height="2" rx="1" ry="1" style="fill:#16ff00"/><rect x="12" y="5" width="3" height="2" rx="1" ry="1" style="fill:#16ff00"/><rect x="12" y="8" width="3" height="2" rx="1" ry="1" style="fill:#16ff00"/><rect x="7" y="8" width="3" height="2" rx="1" ry="1" style="fill:#16ff00"/><rect y="8" width="3" height="2" rx="1" ry="1" style="fill:#16ff00"/><rect y="14" width="3" height="2" rx="1" ry="1" style="fill:#16ff00"/><rect x="7" y="14" width="4" height="2" rx="1" ry="1" style="fill:#16ff00"/><rect x="7" y="2" width="5.984" height="2" rx="1" ry="1" style="fill:#16ff00"/><rect y="11" width="13" height="2" rx="1" ry="1" style="fill:#16ff00"/><rect x="1" width="4.984" height="2" rx="1" ry="1" style="fill:#231f20"/><rect x="1" y="3" width="4.984" height="2" rx="1" ry="1" style="fill:#231f20"/><rect x="8" y="3" width="3" height="2" rx="1" ry="1" style="fill:#231f20"/><rect x="13" y="3" width="3" height="2" rx="1" ry="1" style="fill:#231f20"/><rect x="13" y="6" width="3" height="2" rx="1" ry="1" style="fill:#231f20"/><rect x="8" y="6" width="3" height="2" rx="1" ry="1" style="fill:#231f20"/><rect x="1" y="6" width="3" height="2" rx="1" ry="1" style="fill:#231f20"/><rect x="1" y="12" width="3" height="2" rx="1" ry="1" style="fill:#231f20"/><rect x="8" y="12" width="4" height="2" rx="1" ry="1" style="fill:#231f20"/><rect x="8" width="5.984" height="2" rx="1" ry="1" style="fill:#231f20"/><rect x="1" y="9" width="13" height="2" rx="1" ry="1" style="fill:#231f20"/></g></g></svg>