
<svg xmlns="http://www.w3.org/2000/svg" viewBox="0 0 16 16"><title>favicon_1</title><g id="Layer_2" data-name="Layer 2"><g id="Layer_2-2" data-name="Layer 2"><rect width="16" height="16" style="fill:none"/><rect width="16" height="16" style="fill:#fff"/><rect y="1" width="5.984" height="2" rx="1" ry="1" style="fill:#231f20"/><rect y="4" width="5.984" height="2" rx="1" ry="1" style="fill:#231f20"/><rect x="8" y="4" width="3" height="2" rx="1" ry="1" style="fill:#231f20"/><rect x="13" y="4" width="3" height="2" rx="1" ry="1" style="fill:#231f20"/><rect x="13" y="7" width="3" height="2" rx="1" ry="1" style="fill:#231f20"/><rect x="8" y="7" width="3" height="2" rx="1" ry="1" style="fill:#231f20"/><rect y="7" width="4" height="2" rx="1" ry="1" style="fill:#231f20"/><rect y="13" width="4" height="2" rx="1" ry="1" style="fill:#231f20"/><rect x="8" y="13" width="4" height="2" rx="1" ry="1" style="fill:#231f20"/><rect x="8" y="1" width="5.984" height="2" rx="1" ry="1" style="fill:#231f20"/><rect y="10" width="14" height="2" rx="1" ry="1" style="fill:#231f20"/></g></g></svg>