<svg xmlns="http://www.w3.org/2000/svg" viewBox="0 0 16 16"><title>favicon_2</title><g id="Layer_2" data-name="Layer 2"><g id="Layer_2-2" data-name="Layer 2"><rect width="16" height="16" style="fill:none"/><rect y="1" width="6.984" height="2" rx="1" ry="1" style="fill:#0062ff"/><rect y="4" width="3.984" height="2" rx="1" ry="1" style="fill:#0062ff"/><rect x="8" y="4" width="3" height="2" rx="1" ry="1" style="fill:#0062ff"/><rect x="12" y="4" width="4" height="2" rx="1" ry="1" style="fill:#0062ff"/><rect x="12" y="7" width="4" height="2" rx="1" ry="1" style="fill:#0062ff"/><rect y="13" width="4" height="2" rx="1" ry="1" style="fill:#0062ff"/><rect x="8" y="13" width="4" height="2" rx="1" ry="1" style="fill:#0062ff"/><rect x="8" y="1" width="5.984" height="2" rx="1" ry="1" style="fill:#0062ff"/><rect y="10" width="4" height="2" rx="1" ry="1" style="fill:#0062ff"/><rect x="8" y="10" width="6" height="2" rx="1" ry="1" style="fill:#0062ff"/><rect y="7" width="11" height="2" rx="1" ry="1" style="fill:#0062ff"/></g></g></svg>