<svg xmlns="http://www.w3.org/2000/svg" viewBox="0 0 32 32">
  <title>FontParts</title>
  <style>
    stroke: #fff;
    stroke-linecap: round;
    stroke-width: 2px
  </style>
  <g>
          <line x1="3" y1="4" x2="12" y2="4"/>
          <line x1="3" y1="7" x2="12" y2="7"/>
          <line x1="3" y1="10" x2="7" y2="10"/>
          <line x1="3" y1="16" x2="28" y2="16"/>
          <line x1="3" y1="19" x2="26" y2="19"/>
          <line x1="3" y1="22" x2="7" y2="22"/>
          <line x1="3" y1="25" x2="7" y2="25"/>
          <line x1="17" y1="4" x2="25.983" y2="4"/>
          <line x1="17" y1="7" x2="28" y2="7"/>
          <line x1="17" y1="10" x2="21" y2="10"/>
          <line x1="25" y1="10" x2="29" y2="10"/>
          <line x1="3" y1="13" x2="7" y2="13"/>
          <line x1="17" y1="13" x2="21" y2="13"/>
          <line x1="25" y1="13" x2="29" y2="13"/>
          <line x1="17" y1="22" x2="21" y2="22"/>
          <line x1="17" y1="25" x2="21" y2="25"/>
          <line x1="3" y1="28" x2="7" y2="28"/>
          <line x1="17" y1="28" x2="21" y2="28"/>
  </g>
</svg>
