<svg xmlns="http://www.w3.org/2000/svg" viewBox="0 0 32 32"><title>FontParts</title><style/><g><line x1="3" x2="12" y1="4" y2="4"/><line x1="3" x2="12" y1="7" y2="7"/><line x1="3" x2="7" y1="10" y2="10"/><line x1="3" x2="28" y1="16" y2="16"/><line x1="3" x2="26" y1="19" y2="19"/><line x1="3" x2="7" y1="22" y2="22"/><line x1="3" x2="7" y1="25" y2="25"/><line x1="17" x2="25.983" y1="4" y2="4"/><line x1="17" x2="28" y1="7" y2="7"/><line x1="17" x2="21" y1="10" y2="10"/><line x1="25" x2="29" y1="10" y2="10"/><line x1="3" x2="7" y1="13" y2="13"/><line x1="17" x2="21" y1="13" y2="13"/><line x1="25" x2="29" y1="13" y2="13"/><line x1="17" x2="21" y1="22" y2="22"/><line x1="17" x2="21" y1="25" y2="25"/><line x1="3" x2="7" y1="28" y2="28"/><line x1="17" x2="21" y1="28" y2="28"/></g></svg>