<svg xmlns="http://www.w3.org/2000/svg" viewBox="0 0 1627.494 328.418"><defs><style>@keyframes reDash{0%,25%{stroke-dashoffset:0;opacity:1}12.49%{stroke-dashoffset:-500;opacity:0}12.5%{stroke-dashoffset:500;opacity:0}}.path{fill:none;stroke:#fff;stroke-linecap:round;stroke-miterlimit:10;stroke-width:15.639px;stroke-dasharray:250;stroke-dashoffset:250;transition:3s ease}.path-0{animation:dash 3s 0s ease forwards,reDash 24s 4s ease infinite}.path-1{animation:dash 3s .1s ease forwards,reDash 24s 4.2s ease infinite}.path-2{animation:dash 3s .2s ease forwards,reDash 24s 4.4s ease infinite}.path-3{animation:dash 3s .3s ease forwards,reDash 24s 4.6s ease infinite}.path-4{animation:dash 3s .4s ease forwards,reDash 24s 4.8s ease infinite}.path-5{animation:dash 3s .5s ease forwards,reDash 24s 5s ease infinite}.path-6{animation:dash 3s .6s ease forwards,reDash 24s 5.2s ease infinite}.path-7{animation:dash 3s .7s ease forwards,reDash 24s 5.4s ease infinite}.path-8{animation:dash 3s .8s ease forwards,reDash 24s 5.6s ease infinite}.path-9{animation:dash 3s .9s ease forwards,reDash 24s 5.8s ease infinite}</style></defs><title>fp-logo-lines</title><g id="Layer_2" data-name="Layer 2"><g id="Layer_2-2" data-name="Layer 2"><line x1="7.819" x2="173.071" y1="7.819" y2="7.819" class="path path-6"/><line x1="7.819" x2="173.071" y1="33.884" y2="33.884" class="path path-9"/><line x1="7.819" x2="173.071" y1="59.949" y2="59.949" class="path path-7"/><line x1="7.819" x2="75.588" y1="86.014" y2="86.014" class="path path-6"/><line x1="7.819" x2="75.588" y1="112.079" y2="112.079" class="path path-6"/><line x1="7.819" x2="75.588" y1="138.144" y2="138.144" class="path path-6"/><line x1="7.819" x2="164.209" y1="164.209" y2="164.209" class="path path-4"/><line x1="7.819" x2="153.783" y1="190.274" y2="190.274" class="path path-0"/><line x1="7.819" x2="143.357" y1="216.339" y2="216.339" class="path path-3"/><line x1="7.819" x2="75.588" y1="242.404" y2="242.404" class="path path-7"/><line x1="7.819" x2="75.588" y1="268.469" y2="268.469" class="path path-2"/><line x1="7.819" x2="75.588" y1="294.534" y2="294.534" class="path path-8"/><line x1="7.819" x2="75.588" y1="320.599" y2="320.599" class="path path-0"/><line x1="220.509" x2="332.067" y1="86.014" y2="86.014" class="path path-4"/><line x1="207.998" x2="344.578" y1="112.079" y2="112.079" class="path path-2"/><line x1="201.743" x2="350.834" y1="138.144" y2="138.144" class="path path-7"/><line x1="195.487" x2="258.043" y1="164.209" y2="164.209" class="path path-5"/><line x1="190.274" x2="258.043" y1="190.274" y2="190.274" class="path path-6"/><line x1="190.274" x2="258.043" y1="216.339" y2="216.339" class="path path-1"/><line x1="197.572" x2="258.043" y1="242.404" y2="242.404" class="path path-7"/><line x1="298.704" x2="361.26" y1="164.209" y2="164.209" class="path path-0"/><line x1="299.747" x2="367.515" y1="190.274" y2="190.274" class="path path-2"/><line x1="299.747" x2="367.515" y1="216.339" y2="216.339" class="path path-2"/><line x1="299.747" x2="360.739" y1="242.404" y2="242.404" class="path path-2"/><line x1="204.349" x2="353.44" y1="268.469" y2="268.469" class="path path-6"/><line x1="210.605" x2="347.185" y1="294.534" y2="294.534" class="path path-1"/><line x1="223.116" x2="334.674" y1="320.599" y2="320.599" class="path path-9"/><line x1="399.836" x2="428.507" y1="86.014" y2="86.014" class="path path-3"/><line x1="399.836" x2="439.455" y1="112.079" y2="112.079" class="path path-5"/><line x1="472.818" x2="537.98" y1="86.014" y2="86.014" class="path path-6"/><line x1="472.818" x2="549.97" y1="112.079" y2="112.079" class="path path-3"/><line x1="399.836" x2="556.747" y1="138.144" y2="138.144" class="path path-5"/><line x1="399.836" x2="462.392" y1="164.209" y2="164.209" class="path path-4"/><line x1="504.096" x2="565.088" y1="164.209" y2="164.209" class="path path-8"/><line x1="399.836" x2="467.605" y1="190.274" y2="190.274" class="path path-2"/><line x1="504.096" x2="571.864" y1="190.274" y2="190.274" class="path path-4"/><line x1="399.836" x2="467.605" y1="216.339" y2="216.339" class="path path-1"/><line x1="504.096" x2="571.864" y1="216.339" y2="216.339" class="path path-5"/><line x1="399.836" x2="467.605" y1="242.404" y2="242.404" class="path path-9"/><line x1="504.096" x2="571.864" y1="242.404" y2="242.404" class="path path-7"/><line x1="399.836" x2="467.605" y1="268.469" y2="268.469" class="path path-4"/><line x1="504.096" x2="571.864" y1="268.469" y2="268.469" class="path path-6"/><line x1="399.836" x2="467.605" y1="294.534" y2="294.534" class="path path-4"/><line x1="504.096" x2="571.864" y1="294.534" y2="294.534" class="path path-5"/><line x1="399.836" x2="467.605" y1="320.599" y2="320.599" class="path path-3"/><line x1="504.096" x2="571.864" y1="320.599" y2="320.599" class="path path-4"/><line x1="634.42" x2="673.518" y1="7.819" y2="7.819" class="path path-7"/><line x1="627.122" x2="673.518" y1="33.884" y2="33.884" class="path path-1"/><line x1="619.303" x2="673.518" y1="59.949" y2="59.949" class="path path-8"/><line x1="612.004" x2="731.382" y1="86.014" y2="86.014" class="path path-2"/><line x1="605.228" x2="731.382" y1="112.079" y2="112.079" class="path path-4"/><line x1="605.228" x2="731.382" y1="138.144" y2="138.144" class="path path-2"/><line x1="605.228" x2="672.996" y1="164.209" y2="164.209" class="path path-4"/><line x1="605.228" x2="672.996" y1="190.274" y2="190.274" class="path path-5"/><line x1="605.228" x2="672.996" y1="216.339" y2="216.339" class="path path-0"/><line x1="610.44" x2="672.996" y1="242.404" y2="242.404" class="path path-7"/><line x1="619.303" x2="737.116" y1="268.469" y2="268.469" class="path path-5"/><line x1="625.558" x2="730.86" y1="294.534" y2="294.534" class="path path-3"/><line x1="632.856" x2="723.562" y1="320.599" y2="320.599" class="path path-5"/><line x1="772.043" x2="906.017" y1="7.819" y2="7.819" class="path path-0"/><line x1="772.043" x2="921.656" y1="33.884" y2="33.884" class="path path-3"/><line x1="772.043" x2="937.295" y1="59.949" y2="59.949" class="path path-9"/><line x1="772.043" x2="834.599" y1="86.014" y2="86.014" class="path path-1"/><line x1="876.303" x2="944.071" y1="86.014" y2="86.014" class="path path-8"/><line x1="772.043" x2="839.812" y1="112.079" y2="112.079" class="path path-0"/><line x1="876.303" x2="944.071" y1="112.079" y2="112.079" class="path path-5"/><line x1="772.043" x2="839.812" y1="138.144" y2="138.144" class="path path-5"/><line x1="876.303" x2="944.071" y1="138.144" y2="138.144" class="path path-1"/><line x1="772.043" x2="839.812" y1="164.209" y2="164.209" class="path path-9"/><line x1="876.303" x2="938.859" y1="164.209" y2="164.209" class="path path-3"/><line x1="772.043" x2="928.433" y1="190.274" y2="190.274" class="path path-9"/><line x1="772.043" x2="918.007" y1="216.339" y2="216.339" class="path path-7"/><line x1="772.043" x2="839.812" y1="242.404" y2="242.404" class="path path-7"/><line x1="772.043" x2="839.812" y1="268.469" y2="268.469" class="path path-3"/><line x1="772.043" x2="839.812" y1="294.534" y2="294.534" class="path path-1"/><line x1="772.043" x2="839.812" y1="320.599" y2="320.599" class="path path-6"/><line x1="975.871" x2="1098.897" y1="86.014" y2="86.014" class="path path-8"/><line x1="975.871" x2="1111.408" y1="112.079" y2="112.079" class="path path-0"/><line x1="975.871" x2="1121.834" y1="138.144" y2="138.144" class="path path-8"/><line x1="1064.491" x2="1127.047" y1="164.209" y2="164.209" class="path path-7"/><line x1="970.658" x2="1127.047" y1="190.274" y2="190.274" class="path path-2"/><line x1="960.232" x2="1127.047" y1="216.339" y2="216.339" class="path path-1"/><line x1="967.009" x2="1028.001" y1="242.404" y2="242.404" class="path path-5"/><line x1="1071.268" x2="1127.047" y1="242.404" y2="242.404" class="path path-3"/><line x1="975.349" x2="1038.427" y1="268.469" y2="268.469" class="path path-9"/><line x1="1072.311" x2="1127.047" y1="268.469" y2="268.469" class="path path-1"/><line x1="986.297" x2="1127.047" y1="294.534" y2="294.534" class="path path-2"/><line x1="998.287" x2="1127.047" y1="320.599" y2="320.599" class="path path-7"/><line x1="1163.538" x2="1192.21" y1="86.014" y2="86.014" class="path path-5"/><line x1="1236.52" x2="1294.384" y1="86.014" y2="86.014" class="path path-5"/><line x1="1163.538" x2="1203.157" y1="112.079" y2="112.079" class="path path-9"/><line x1="1236.52" x2="1294.384" y1="112.079" y2="112.079" class="path path-9"/><line x1="1163.538" x2="1294.384" y1="138.144" y2="138.144" class="path path-8"/><line x1="1163.538" x2="1226.094" y1="164.209" y2="164.209" class="path path-5"/><line x1="1163.538" x2="1231.307" y1="190.274" y2="190.274" class="path path-5"/><line x1="1163.538" x2="1231.307" y1="216.339" y2="216.339" class="path path-7"/><line x1="1163.538" x2="1231.307" y1="242.404" y2="242.404" class="path path-9"/><line x1="1163.538" x2="1231.307" y1="268.469" y2="268.469" class="path path-7"/><line x1="1163.538" x2="1231.307" y1="294.534" y2="294.534" class="path path-8"/><line x1="1163.538" x2="1231.307" y1="320.599" y2="320.599" class="path path-8"/><line x1="1351.206" x2="1390.303" y1="7.819" y2="7.819" class="path path-1"/><line x1="1343.907" x2="1390.303" y1="33.884" y2="33.884" class="path path-6"/><line x1="1336.088" x2="1390.303" y1="59.949" y2="59.949" class="path path-9"/><line x1="1328.79" x2="1448.167" y1="86.014" y2="86.014" class="path path-7"/><line x1="1322.013" x2="1448.167" y1="112.079" y2="112.079" class="path path-3"/><line x1="1322.013" x2="1448.167" y1="138.144" y2="138.144" class="path path-3"/><line x1="1322.013" x2="1389.782" y1="164.209" y2="164.209" class="path path-6"/><line x1="1322.013" x2="1389.782" y1="190.274" y2="190.274" class="path path-0"/><line x1="1322.013" x2="1389.782" y1="216.339" y2="216.339" class="path path-3"/><line x1="1327.226" x2="1389.782" y1="242.404" y2="242.404" class="path path-4"/><line x1="1336.088" x2="1453.901" y1="268.469" y2="268.469" class="path path-7"/><line x1="1342.343" x2="1447.646" y1="294.534" y2="294.534" class="path path-6"/><line x1="1349.642" x2="1440.348" y1="320.599" y2="320.599" class="path path-2"/><line x1="1499.776" x2="1614.461" y1="86.014" y2="86.014" class="path path-7"/><line x1="1487.264" x2="1614.461" y1="112.079" y2="112.079" class="path path-4"/><line x1="1481.009" x2="1614.461" y1="138.144" y2="138.144" class="path path-1"/><line x1="1469.54" x2="1526.883" y1="164.209" y2="164.209" class="path path-0"/><line x1="1469.54" x2="1619.674" y1="190.274" y2="190.274" class="path path-5"/><line x1="1479.966" x2="1619.674" y1="216.339" y2="216.339" class="path path-9"/><line x1="1563.374" x2="1619.674" y1="242.404" y2="242.404" class="path path-5"/><line x1="1485.179" x2="1611.855" y1="268.469" y2="268.469" class="path path-5"/><line x1="1485.179" x2="1605.599" y1="294.534" y2="294.534" class="path path-7"/><line x1="1485.179" x2="1593.088" y1="320.599" y2="320.599" class="path path-0"/></g></g></svg>